<svg xmlns="http://www.w3.org/2000/svg" viewBox="0 0 64 64">
  <defs>
    <linearGradient id="bg" x1="0" y1="0" x2="0" y2="1">
      <stop offset="0%" stop-color="#16a34a"/>
      <stop offset="100%" stop-color="#15803d"/>
    </linearGradient>
  </defs>
  <!-- Shield -->
  <path d="M32 4 L56 12 V30 C56 44 46 54 32 60 C18 54 8 44 8 30 V12 Z" fill="url(#bg)"/>
  <!-- Leaf/food symbol -->
  <path d="M32 16 C24 20 20 28 20 36 C20 42 25 47 32 47 C39 47 44 42 44 36 C44 28 40 20 32 16 Z" fill="#fff" opacity="0.95"/>
  <path d="M32 20 L32 43" stroke="#15803d" stroke-width="2.5" stroke-linecap="round"/>
  <path d="M32 28 L28 24 M32 32 L27 29 M32 36 L28 34" stroke="#15803d" stroke-width="2" stroke-linecap="round"/>
</svg>
